<svg id="Camada_1" data-name="Camada 1" xmlns="http://www.w3.org/2000/svg" viewBox="0 0 2481 928.3"><defs><style>.cls-1{fill:#db0812;}.cls-2{fill:#1d1d1b;}</style></defs><path class="cls-1" d="M575.44,378.44a208.3,208.3,0,0,1-171,89.15c-115.16,0-208.54-93.35-208.54-208.51S289.27,50.54,404.43,50.54A207.47,207.47,0,0,1,515,82.22L404.47,259.08,611.68,139.43a285,285,0,0,0-141-113.12,431.48,431.48,0,0,0-296.73,0,285.22,285.22,0,0,0-121.24,86,230.77,230.77,0,0,0,0,293.52,284.29,284.29,0,0,0,121.24,86A427.88,427.88,0,0,0,322.3,518.14,432.4,432.4,0,0,0,419,507.25a322.38,322.38,0,0,0,165.11-96.39Z"/><path class="cls-1" d="M1450.28,88.49a76.34,76.34,0,0,0-32.08,7.06l-120.6,56.23a75.95,75.95,0,0,0-106.86-56.23l-147.41,68.74H1147V505.52h151.67V202.2a37.92,37.92,0,0,1,75.83,0V505.52h151.65V164.29a75.8,75.8,0,0,0-75.83-75.8"/><path class="cls-1" d="M2401.31,88.49a76.08,76.08,0,0,0-32.06,7.06l-120.66,56.23a75.9,75.9,0,0,0-106.81-56.23l-147.4,68.74H2098V505.52h151.73V202.2a37.9,37.9,0,1,1,75.79,0V505.52h151.67V164.29a75.8,75.8,0,0,0-75.83-75.8"/><path class="cls-1" d="M1853.21,486.4a47.35,47.35,0,0,1-58-33.45l-73.63-274.72a47.39,47.39,0,0,1,91.56-24.52l73.63,274.66a47.37,47.37,0,0,1-33.53,58M1804.13,88.49c-118.65,0-214.81,96.16-214.81,214.83s96.16,214.82,214.81,214.82S2019,422,2019,303.32s-96.2-214.83-214.88-214.83"/><path class="cls-1" d="M942.51,505.52H1094.2L1006.92,179.8a123.38,123.38,0,0,0-161.2-83.92l-188,68.42H851.07l33.11,123.35a182.44,182.44,0,0,0-119.56-44.38,195,195,0,0,0-93.9,23.93,143.45,143.45,0,0,0-53.07,50.47,117.54,117.54,0,0,0,0,122.89,142.72,142.72,0,0,0,53.07,50.49,195.95,195.95,0,0,0,252.64-57.12ZM903.67,379.13a75.82,75.82,0,1,1-75.86-75.8,75.83,75.83,0,0,1,75.86,75.8"/><path class="cls-2" d="M153.75,727.21q-16.44-12.13-39.07-12.14-19.31,0-33,7.67A66.22,66.22,0,0,0,59,743.37a90.48,90.48,0,0,0-13.1,29.56,138.62,138.62,0,0,0-4.24,34.52,155.05,155.05,0,0,0,4.24,36.93A90.08,90.08,0,0,0,59,874.76,66.17,66.17,0,0,0,81.8,895.38Q95.69,903,115,903a60.76,60.76,0,0,0,25.19-4.95,56.81,56.81,0,0,0,19-13.75,64.12,64.12,0,0,0,12.51-20.94,91.09,91.09,0,0,0,5.44-26.22h28.67q-4.28,43.17-28.07,67.14t-65.14,24q-25,0-43.72-9.11A86.26,86.26,0,0,1,37.79,894.1a110,110,0,0,1-18.56-37.73,169.72,169.72,0,0,1-6.17-46.69,160.42,160.42,0,0,1,6.63-46.82,114.8,114.8,0,0,1,19.45-38.21,91.35,91.35,0,0,1,32-25.74q19.15-9.42,43.88-9.43a105.23,105.23,0,0,1,32,4.79,84.05,84.05,0,0,1,26.83,14.08,77.5,77.5,0,0,1,19.61,23.18q7.84,13.89,10.24,32.13H175q-4.83-24.28-21.25-36.45"/><path class="cls-2" d="M331.83,694.91,416,923.19H384.31L360.8,854.45H269.7l-24.14,68.74H216.31l83.86-228.28Zm19.92,134-35.9-106.46h-.61L278.75,828.88Z"/><polygon class="cls-2" points="467.55 694.91 580.95 880.02 581.56 880.02 581.56 694.91 608.72 694.91 608.72 923.19 577.33 923.19 464.84 740 464.23 740 464.23 923.19 437.09 923.19 437.09 694.91 467.55 694.91"/><path class="cls-2" d="M649.86,764.14a115.87,115.87,0,0,1,19.46-38.21,96,96,0,0,1,32.27-26.54q19.3-9.92,44.95-9.91t44.93,9.91a96,96,0,0,1,32.27,26.54,115.07,115.07,0,0,1,19.44,38.21,158.7,158.7,0,0,1,0,89.84,115.17,115.17,0,0,1-19.44,38.19,94.34,94.34,0,0,1-32.27,26.39q-19.34,9.74-44.93,9.74t-44.95-9.74a94.34,94.34,0,0,1-32.27-26.39A116,116,0,0,1,649.86,854a158.7,158.7,0,0,1,0-89.84m26.39,79a95,95,0,0,0,13.27,30.22,69.13,69.13,0,0,0,23.22,21.56q14.18,8.19,33.8,8.17t33.76-8.17a69,69,0,0,0,23.22-21.56,95,95,0,0,0,13.27-30.22,138.84,138.84,0,0,0,0-68.1,94.93,94.93,0,0,0-13.27-30.2,68.89,68.89,0,0,0-23.22-21.58q-14.17-8.16-33.76-8.15t-33.8,8.15a69,69,0,0,0-23.22,21.58A94.93,94.93,0,0,0,676.25,775a139.48,139.48,0,0,0,0,68.1"/><polygon class="cls-2" points="914.83 694.91 1028.21 880.02 1028.82 880.02 1028.82 694.91 1055.97 694.91 1055.97 923.19 1024.6 923.19 912.09 740 911.5 740 911.5 923.19 884.35 923.19 884.35 694.91 914.83 694.91"/><polygon class="cls-2" points="1226.37 694.91 1294.23 886.74 1362.38 694.91 1401.6 694.91 1401.6 923.19 1374.44 923.19 1374.44 733.28 1373.85 733.28 1306.58 923.19 1282.16 923.19 1214.89 733.28 1214.3 733.28 1214.3 923.19 1187.14 923.19 1187.14 694.91 1226.37 694.91"/><polygon class="cls-2" points="1598.23 694.91 1598.23 720.5 1478.2 720.5 1478.2 793.06 1590.08 793.06 1590.08 818.65 1478.2 818.65 1478.2 897.61 1599.15 897.61 1599.15 923.19 1449.54 923.19 1449.54 694.91 1598.23 694.91"/><path class="cls-2" d="M1707.71,694.92q49.74,0,76.6,26.87t26.85,81.84q0,28.75-6,51T1786.42,892a81.08,81.08,0,0,1-32.26,23.18q-19.62,8-46.45,8h-73.9V694.92Zm2.42,202.69a113.87,113.87,0,0,0,12-.8,63.78,63.78,0,0,0,15.39-3.84,68.78,68.78,0,0,0,16.14-8.78A56.47,56.47,0,0,0,1768,868.51q6.33-9.91,10.4-24.77t4.07-36a161.22,161.22,0,0,0-3.76-36.6q-3.78-16.15-12.37-27.5a54.61,54.61,0,0,0-22.17-17.26q-13.56-5.91-33.48-5.9h-48.25v177.1Z"/><rect class="cls-2" x="1847.34" y="694.91" width="28.66" height="228.28"/><path class="cls-2" d="M2054.7,727.21q-16.44-12.13-39.07-12.14-19.31,0-33,7.67A66.47,66.47,0,0,0,1960,743.37a90.9,90.9,0,0,0-13.1,29.56,139.08,139.08,0,0,0-4.24,34.52,155.57,155.57,0,0,0,4.24,36.93,90.48,90.48,0,0,0,13.1,30.38,66.17,66.17,0,0,0,22.76,20.62q13.89,7.65,33.19,7.66a60.68,60.68,0,0,0,25.18-4.95,57,57,0,0,0,19-13.75,64.12,64.12,0,0,0,12.51-20.94,91.42,91.42,0,0,0,5.44-26.22h28.66q-4.23,43.17-28.05,67.14t-65.15,24q-25,0-43.73-9.11a86.26,86.26,0,0,1-31.07-25.09,110.4,110.4,0,0,1-18.56-37.73,170.1,170.1,0,0,1-6.16-46.69,160.42,160.42,0,0,1,6.62-46.82,115.19,115.19,0,0,1,19.46-38.21,91.35,91.35,0,0,1,32-25.74q19.15-9.42,43.88-9.43a105.19,105.19,0,0,1,32,4.79,84.16,84.16,0,0,1,26.83,14.08,77.5,77.5,0,0,1,19.61,23.18q7.84,13.89,10.23,32.13H2076q-4.85-24.28-21.25-36.45"/><path class="cls-2" d="M2232.78,694.91l84.15,228.28h-31.68l-23.5-68.74h-91.11l-24.13,68.74h-29.24l83.85-228.28Zm19.91,134L2216.8,722.42h-.6l-36.49,106.46Z"/><polygon class="cls-2" points="2366.99 694.91 2366.99 897.61 2481 897.61 2481 923.19 2338.34 923.19 2338.34 694.91 2366.99 694.91"/></svg>